<svg xmlns="http://www.w3.org/2000/svg" xmlns:xlink="http://www.w3.org/1999/xlink">
<!--!Font Awesome Free 6.5.2 by @fontawesome - https://fontawesome.com License - https://fontawesome.com/license/free Copyright 2024 Fonticons, Inc.--> 
<defs>
<symbol id="icon-bus" viewBox="0 0 576 512">
	<title>Bus</title><path d="M288 0C422.4 0 512 35.2 512 80V96l0 32c17.7 0 32 14.3 32 32v64c0 17.7-14.3 32-32 32l0 160c0 17.7-14.3 32-32 32v32c0 17.7-14.3 32-32 32H416c-17.7 0-32-14.3-32-32V448H192v32c0 17.7-14.3 32-32 32H128c-17.7 0-32-14.3-32-32l0-32c-17.7 0-32-14.3-32-32l0-160c-17.7 0-32-14.3-32-32V160c0-17.7 14.3-32 32-32h0V96h0V80C64 35.2 153.6 0 288 0zM128 160v96c0 17.7 14.3 32 32 32H272V128H160c-17.7 0-32 14.3-32 32zM304 288H416c17.7 0 32-14.3 32-32V160c0-17.7-14.3-32-32-32H304V288zM144 400a32 32 0 1 0 0-64 32 32 0 1 0 0 64zm288 0a32 32 0 1 0 0-64 32 32 0 1 0 0 64zM384 80c0-8.8-7.2-16-16-16H208c-8.8 0-16 7.2-16 16s7.2 16 16 16H368c8.8 0 16-7.2 16-16z"/></symbol>
    <symbol id="icon-footprints" viewBox="0 0 640 512">
	<title>Footprints</title>
    <path d="M416 0C352.3 0 256 32 256 32V160c48 0 76 16 104 32s56 32 104 32c56.4 0 176-16 176-96S512 0 416 0zM128 96c0 35.3 28.7 64 64 64h32V32H192c-35.3 0-64 28.7-64 64zM288 512c96 0 224-48 224-128s-119.6-96-176-96c-48 0-76 16-104 32s-56 32-104 32V480s96.3 32 160 32zM0 416c0 35.3 28.7 64 64 64H96V352H64c-35.3 0-64 28.7-64 64z"/></symbol>
<symbol id="icon-horse" viewBox="0 0 576 512">
	<title>Horse</title>
<path d="M448 238.1V160h16l9.8 19.6c12.5 25.1 42.2 36.4 68.3 26c20.5-8.2 33.9-28 33.9-50.1V80c0-19.1-8.4-36.3-21.7-48H560c8.8 0 16-7.2 16-16s-7.2-16-16-16H480 448C377.3 0 320 57.3 320 128H224 203.2 148.8c-30.7 0-57.6 16.3-72.5 40.8C33.2 174.5 0 211.4 0 256v56c0 13.3 10.7 24 24 24s24-10.7 24-24V256c0-13.4 6.6-25.2 16.7-32.5c1.6 13 6.3 25.4 13.6 36.4l28.2 42.4c8.3 12.4 6.4 28.7-1.2 41.6c-16.5 28-20.6 62.2-10 93.9l17.5 52.4c4.4 13.1 16.6 21.9 30.4 21.9h33.7c21.8 0 37.3-21.4 30.4-42.1l-20.8-62.5c-2.1-6.4-.5-13.4 4.3-18.2l12.7-12.7c13.2-13.2 20.6-31.1 20.6-49.7c0-2.3-.1-4.6-.3-6.9l84 24c4.1 1.2 8.2 2.1 12.3 2.8V480c0 17.7 14.3 32 32 32h32c17.7 0 32-14.3 32-32V315.7c19.2-19.2 31.5-45.7 32-75.7h0v-1.9zM496 64a16 16 0 1 1 0 32 16 16 0 1 1 0-32z"/></symbol>

<symbol id="icon-food" viewBox="-30 0 576 512">
<title>Food</title>
<path d="M416 0C400 0 288 32 288 176V288c0 35.3 28.7 64 64 64h32V480c0 17.7 14.3 32 32 32s32-14.3 32-32V352 240 32c0-17.7-14.3-32-32-32zM64 16C64 7.8 57.9 1 49.7 .1S34.2 4.6 32.4 12.5L2.1 148.8C.7 155.1 0 161.5 0 167.9c0 45.9 35.1 83.6 80 87.7V480c0 17.7 14.3 32 32 32s32-14.3 32-32V255.6c44.9-4.1 80-41.8 80-87.7c0-6.4-.7-12.8-2.1-19.1L191.6 12.5c-1.8-8-9.3-13.3-17.4-12.4S160 7.8 160 16V150.2c0 5.4-4.4 9.8-9.8 9.8c-5.1 0-9.3-3.9-9.8-9L127.9 14.6C127.2 6.3 120.3 0 112 0s-15.2 6.3-15.9 14.6L83.7 151c-.5 5.1-4.7 9-9.8 9c-5.4 0-9.8-4.4-9.8-9.8V16zm48.3 152l-.3 0-.3 0 .3-.7 .3 .7z"/></symbol>


<symbol id="icon-winebottle" viewBox="0 0 512 512">
<title>Wine Bottle</title><path d="M393.4 9.4c12.5-12.5 32.8-12.5 45.3 0l64 64c12.5 12.5 12.5 32.8 0 45.3c-11.8 11.8-30.7 12.5-43.2 1.9l-9.5 9.5-48.8 48.8c-9.2 9.2-11.5 22.9-8.6 35.6c9.4 40.9-1.9 85.6-33.8 117.5L197.3 493.3c-25 25-65.5 25-90.5 0l-88-88c-25-25-25-65.5 0-90.5L180.2 153.3c31.9-31.9 76.6-43.1 117.5-33.8c12.6 2.9 26.4 .5 35.5-8.6l48.8-48.8 9.5-9.5c-10.6-12.6-10-31.4 1.9-43.2zM99.3 347.3l65.4 65.4c6.2 6.2 16.4 6.2 22.6 0l97.4-97.4c6.2-6.2 6.2-16.4 0-22.6l-65.4-65.4c-6.2-6.2-16.4-6.2-22.6 0L99.3 324.7c-6.2 6.2-6.2 16.4 0 22.6z"/></symbol>

<symbol id="icon-wineglass" viewBox="-80 0 512 512">
<title>Wineglass</title><path d="M32.1 29.3C33.5 12.8 47.4 0 64 0H256c16.6 0 30.5 12.8 31.9 29.3l14 168.4c6 72-42.5 135.2-109.9 150.6V448h48c17.7 0 32 14.3 32 32s-14.3 32-32 32H160 80c-17.7 0-32-14.3-32-32s14.3-32 32-32h48V348.4C60.6 333 12.1 269.8 18.1 197.8l14-168.4zm56 98.7H231.9l-5.3-64H93.4l-5.3 64z"/></symbol>

<symbol id="icon-spa" viewBox="0 0 576 512">
<title>Spa</title><path d="M183.1 235.3c33.7 20.7 62.9 48.1 85.8 80.5c7 9.9 13.4 20.3 19.1 31c5.7-10.8 12.1-21.1 19.1-31c22.9-32.4 52.1-59.8 85.8-80.5C437.6 207.8 490.1 192 546 192h9.9c11.1 0 20.1 9 20.1 20.1C576 360.1 456.1 480 308.1 480H288 267.9C119.9 480 0 360.1 0 212.1C0 201 9 192 20.1 192H30c55.9 0 108.4 15.8 153.1 43.3zM301.5 37.6c15.7 16.9 61.1 71.8 84.4 164.6c-38 21.6-71.4 50.8-97.9 85.6c-26.5-34.8-59.9-63.9-97.9-85.6c23.2-92.8 68.6-147.7 84.4-164.6C278 33.9 282.9 32 288 32s10 1.9 13.5 5.6z"/></symbol>

<symbol id="icon-family" viewBox="0 0 640 512">
<title>Family</title><path d="M335.5 4l288 160c15.4 8.6 21 28.1 12.4 43.5s-28.1 21-43.5 12.4L320 68.6 47.5 220c-15.4 8.6-34.9 3-43.5-12.4s-3-34.9 12.4-43.5L304.5 4c9.7-5.4 21.4-5.4 31.1 0zM320 160a40 40 0 1 1 0 80 40 40 0 1 1 0-80zM144 256a40 40 0 1 1 0 80 40 40 0 1 1 0-80zm312 40a40 40 0 1 1 80 0 40 40 0 1 1 -80 0zM226.9 491.4L200 441.5V480c0 17.7-14.3 32-32 32H120c-17.7 0-32-14.3-32-32V441.5L61.1 491.4c-6.3 11.7-20.8 16-32.5 9.8s-16-20.8-9.8-32.5l37.9-70.3c15.3-28.5 45.1-46.3 77.5-46.3h19.5c16.3 0 31.9 4.5 45.4 12.6l33.6-62.3c15.3-28.5 45.1-46.3 77.5-46.3h19.5c32.4 0 62.1 17.8 77.5 46.3l33.6 62.3c13.5-8.1 29.1-12.6 45.4-12.6h19.5c32.4 0 62.1 17.8 77.5 46.3l37.9 70.3c6.3 11.7 1.9 26.2-9.8 32.5s-26.2 1.9-32.5-9.8L552 441.5V480c0 17.7-14.3 32-32 32H472c-17.7 0-32-14.3-32-32V441.5l-26.9 49.9c-6.3 11.7-20.8 16-32.5 9.8s-16-20.8-9.8-32.5l36.3-67.5c-1.7-1.7-3.2-3.6-4.3-5.8L376 345.5V400c0 17.7-14.3 32-32 32H296c-17.7 0-32-14.3-32-32V345.5l-26.9 49.9c-1.2 2.2-2.6 4.1-4.3 5.8l36.3 67.5c6.3 11.7 1.9 26.2-9.8 32.5s-26.2 1.9-32.5-9.8z"/></symbol>

<symbol id="icon-pictures" viewBox="0 0 512 512">
<title>Pictures</title><path d="M220.6 121.2L271.1 96 448 96v96H333.2c-21.9-15.1-48.5-24-77.2-24s-55.2 8.9-77.2 24H64V128H192c9.9 0 19.7-2.3 28.6-6.8zM0 128V416c0 35.3 28.7 64 64 64H448c35.3 0 64-28.7 64-64V96c0-35.3-28.7-64-64-64H271.1c-9.9 0-19.7 2.3-28.6 6.8L192 64H160V48c0-8.8-7.2-16-16-16H80c-8.8 0-16 7.2-16 16l0 16C28.7 64 0 92.7 0 128zM168 304a88 88 0 1 1 176 0 88 88 0 1 1 -176 0z"/></symbol>
<symbol id="open" viewBox="0 0 512 512"><title>Open in another tab</title><path d="M352 0c-12.9 0-24.6 7.8-29.6 19.8s-2.2 25.7 6.9 34.9L370.7 96 201.4 265.4c-12.5 12.5-12.5 32.8 0 45.3s32.8 12.5 45.3 0L416 141.3l41.4 41.4c9.2 9.2 22.9 11.9 34.9 6.9s19.8-16.6 19.8-29.6V32c0-17.7-14.3-32-32-32H352zM80 32C35.8 32 0 67.8 0 112V432c0 44.2 35.8 80 80 80H400c44.2 0 80-35.8 80-80V320c0-17.7-14.3-32-32-32s-32 14.3-32 32V432c0 8.8-7.2 16-16 16H80c-8.8 0-16-7.2-16-16V112c0-8.8 7.2-16 16-16H192c17.7 0 32-14.3 32-32s-14.3-32-32-32H80z"/></symbol>
<symbol id="icon-whatsapp" viewBox="0 0 448 512"><title>Whatsapp</title><path d="M380.9 97.1C339 55.1 283.2 32 223.9 32c-122.4 0-222 99.6-222 222 0 39.1 10.2 77.3 29.6 111L0 480l117.7-30.9c32.4 17.7 68.9 27 106.1 27h.1c122.3 0 224.1-99.6 224.1-222 0-59.3-25.2-115-67.1-157zm-157 341.6c-33.2 0-65.7-8.9-94-25.7l-6.7-4-69.8 18.3L72 359.2l-4.4-7c-18.5-29.4-28.2-63.3-28.2-98.2 0-101.7 82.8-184.5 184.6-184.5 49.3 0 95.6 19.2 130.4 54.1 34.8 34.9 56.2 81.2 56.1 130.5 0 101.8-84.9 184.6-186.6 184.6zm101.2-138.2c-5.5-2.8-32.8-16.2-37.9-18-5.1-1.9-8.8-2.8-12.5 2.8-3.7 5.6-14.3 18-17.6 21.8-3.2 3.7-6.5 4.2-12 1.4-32.6-16.3-54-29.1-75.5-66-5.7-9.8 5.7-9.1 16.3-30.3 1.8-3.7 .9-6.9-.5-9.7-1.4-2.8-12.5-30.1-17.1-41.2-4.5-10.8-9.1-9.3-12.5-9.5-3.2-.2-6.9-.2-10.6-.2-3.7 0-9.7 1.4-14.8 6.9-5.1 5.6-19.4 19-19.4 46.3 0 27.3 19.9 53.7 22.6 57.4 2.8 3.7 39.1 59.7 94.8 83.8 35.2 15.2 49 16.5 66.6 13.9 10.7-1.6 32.8-13.4 37.4-26.4 4.6-13 4.6-24.1 3.2-26.4-1.3-2.5-5-3.9-10.5-6.6z"/></symbol>
<symbol id="icon-fichas" viewBox="0 0 576 512"><title>Fichas</title>
<path d="M384 480h48c11.4 0 21.9-6 27.6-15.9l112-192c5.8-9.9 5.8-22.1 .1-32.1S555.5 224 544 224H144c-11.4 0-21.9 6-27.6 15.9L48 357.1V96c0-8.8 7.2-16 16-16H181.5c4.2 0 8.3 1.7 11.3 4.7l26.5 26.5c21 21 49.5 32.8 79.2 32.8H416c8.8 0 16 7.2 16 16v32h48V160c0-35.3-28.7-64-64-64H298.5c-17 0-33.3-6.7-45.3-18.7L226.7 50.7c-12-12-28.3-18.7-45.3-18.7H64C28.7 32 0 60.7 0 96V416c0 35.3 28.7 64 64 64H87.7 384z"/></symbol>
<symbol id="icon-info" viewBox="0 0 512 512"><title>Info</title>
<path d="M256 512A256 256 0 1 0 256 0a256 256 0 1 0 0 512zM216 336h24V272H216c-13.3 0-24-10.7-24-24s10.7-24 24-24h48c13.3 0 24 10.7 24 24v88h8c13.3 0 24 10.7 24 24s-10.7 24-24 24H216c-13.3 0-24-10.7-24-24s10.7-24 24-24zm40-208a32 32 0 1 1 0 64 32 32 0 1 1 0-64z"/></symbol>
<symbol id="icon-history" viewBox="0 0 512 512">
<title>History</title>
<path d="M248 0h16c13.3 0 24 10.7 24 24V34.7C368.4 48.1 431.9 111.6 445.3 192H448c17.7 0 32 14.3 32 32s-14.3 32-32 32H64c-17.7 0-32-14.3-32-32s14.3-32 32-32h2.7C80.1 111.6 143.6 48.1 224 34.7V24c0-13.3 10.7-24 24-24zM64 288h64V416h40V288h64V416h48V288h64V416h40V288h64V420.3c.6 .3 1.2 .7 1.7 1.1l48 32c11.7 7.8 17 22.4 12.9 35.9S494.1 512 480 512H32c-14.1 0-26.5-9.2-30.6-22.7s1.1-28.1 12.9-35.9l48-32c.6-.4 1.2-.7 1.8-1.1V288z"/></symbol>
<symbol id="icon-water" viewBox="0 0 576 512">
<title>Water</title>
<path d="M269.5 69.9c11.1-7.9 25.9-7.9 37 0C329 85.4 356.5 96 384 96c26.9 0 55.4-10.8 77.4-26.1l0 0c11.9-8.5 28.1-7.8 39.2 1.7c14.4 11.9 32.5 21 50.6 25.2c17.2 4 27.9 21.2 23.9 38.4s-21.2 27.9-38.4 23.9c-24.5-5.7-44.9-16.5-58.2-25C449.5 149.7 417 160 384 160c-31.9 0-60.6-9.9-80.4-18.9c-5.8-2.7-11.1-5.3-15.6-7.7c-4.5 2.4-9.7 5.1-15.6 7.7c-19.8 9-48.5 18.9-80.4 18.9c-33 0-65.5-10.3-94.5-25.8c-13.4 8.4-33.7 19.3-58.2 25c-17.2 4-34.4-6.7-38.4-23.9s6.7-34.4 23.9-38.4C42.8 92.6 61 83.5 75.3 71.6c11.1-9.5 27.3-10.1 39.2-1.7l0 0C136.7 85.2 165.1 96 192 96c27.5 0 55-10.6 77.5-26.1zm37 288C329 373.4 356.5 384 384 384c26.9 0 55.4-10.8 77.4-26.1l0 0c11.9-8.5 28.1-7.8 39.2 1.7c14.4 11.9 32.5 21 50.6 25.2c17.2 4 27.9 21.2 23.9 38.4s-21.2 27.9-38.4 23.9c-24.5-5.7-44.9-16.5-58.2-25C449.5 437.7 417 448 384 448c-31.9 0-60.6-9.9-80.4-18.9c-5.8-2.7-11.1-5.3-15.6-7.7c-4.5 2.4-9.7 5.1-15.6 7.7c-19.8 9-48.5 18.9-80.4 18.9c-33 0-65.5-10.3-94.5-25.8c-13.4 8.4-33.7 19.3-58.2 25c-17.2 4-34.4-6.7-38.4-23.9s6.7-34.4 23.9-38.4c18.1-4.2 36.2-13.3 50.6-25.2c11.1-9.4 27.3-10.1 39.2-1.7l0 0C136.7 373.2 165.1 384 192 384c27.5 0 55-10.6 77.5-26.1c11.1-7.9 25.9-7.9 37 0zm0-144C329 229.4 356.5 240 384 240c26.9 0 55.4-10.8 77.4-26.1l0 0c11.9-8.5 28.1-7.8 39.2 1.7c14.4 11.9 32.5 21 50.6 25.2c17.2 4 27.9 21.2 23.9 38.4s-21.2 27.9-38.4 23.9c-24.5-5.7-44.9-16.5-58.2-25C449.5 293.7 417 304 384 304c-31.9 0-60.6-9.9-80.4-18.9c-5.8-2.7-11.1-5.3-15.6-7.7c-4.5 2.4-9.7 5.1-15.6 7.7c-19.8 9-48.5 18.9-80.4 18.9c-33 0-65.5-10.3-94.5-25.8c-13.4 8.4-33.7 19.3-58.2 25c-17.2 4-34.4-6.7-38.4-23.9s6.7-34.4 23.9-38.4c18.1-4.2 36.2-13.3 50.6-25.2c11.1-9.5 27.3-10.1 39.2-1.7l0 0C136.7 229.2 165.1 240 192 240c27.5 0 55-10.6 77.5-26.1c11.1-7.9 25.9-7.9 37 0z"/></symbol>

    </defs>
    </svg>
